<?xml version="1.0" standalone="no"?><!DOCTYPE svg PUBLIC "-//W3C//DTD SVG 1.1//EN" "http://www.w3.org/Graphics/SVG/1.1/DTD/svg11.dtd"><svg t="1706100439296" class="icon" viewBox="0 0 1024 1024" version="1.1" xmlns="http://www.w3.org/2000/svg" p-id="6173" xmlns:xlink="http://www.w3.org/1999/xlink" width="200" height="200"><path d="M831.783699 352.544335l42.179658-42.094724c10.840906-10.80202 19.380396-23.320125 25.080212-36.96182l0 0c5.698792-13.651928 8.56098-28.440749 8.56098-44.364417l0 0 0 0c0-31.281447-13.121855-60.290131-33.641191-80.760348-20.519336-21.046339-49.600675-33.553187-81.519642-33.553187l0 0c-49.597605 0-80.957847 32.985252-80.957847 32.985252l0 0.567935-42.178635 42.083467L831.783699 352.544335zM376.289644 670.459988l0 136.504954 418.993746-418.024675L632.824321 226.850611 213.251384 644.8671l136.798643 0 0 0c7.41897 0 13.699 2.851954 18.259876 7.396457l0 0C372.868731 657.384182 376.289644 663.644769 376.289644 670.459988L376.289644 670.459988zM195.010951 872.935446l129.399115-30.133298L324.410066 696.628998 177.892061 696.628998l-30.219255 129.111566 41.617863 0 5.719258 0 0 5.680373L195.009927 872.935446zM729.16553 75.56707c19.380396-7.962346 41.038672-12.517081 63.278185-12.517081l0 0c46.179762 0 87.799672 18.765389 118.000508 48.910966 30.219255 30.144554 49.039903 71.660086 49.039903 117.163443 0 22.751167-4.561899 44.364417-13.121855 63.697741-7.977695 20.48045-20.518313 38.675858-35.918048 54.032614l0 0-543.273261 541.447682-1.14201 1.137916-1.13894 0.556679L70.152245 957.12387l-9.118682 2.270716 2.279926-9.106402 67.278289-294.039873 0-1.715061 1.12052-1.133823L675.007049 111.960954l0 0C690.404738 96.604198 708.646194 84.09735 729.16553 75.56707L729.16553 75.56707z" fill="#231915" p-id="6174"></path></svg>