<?xml version="1.0" standalone="no"?><!DOCTYPE svg PUBLIC "-//W3C//DTD SVG 1.1//EN" "http://www.w3.org/Graphics/SVG/1.1/DTD/svg11.dtd"><svg t="1707095983937" class="icon" viewBox="0 0 1024 1024" version="1.1" xmlns="http://www.w3.org/2000/svg" p-id="4475" xmlns:xlink="http://www.w3.org/1999/xlink" width="200" height="200"><path d="M605.661174 309.319814L621.667934 259.569075a9.084918 9.084918 0 0 0-11.680608-10.815378l-47.587664 19.035065-43.261512-28.985213a9.084918 9.084918 0 0 0-13.843684 8.219687l3.460921 51.913815-40.665822 32.446134a9.084918 9.084918 0 0 0 3.460921 15.574145l47.587664 12.545839 18.169835 48.885509a9.084918 9.084918 0 0 0 16.006759 0l27.687368-43.261513h51.913815a9.084918 9.084918 0 0 0 6.489227-14.708914z" p-id="4476"></path><path d="M406.225602 291.149979m-40.665822 0a40.665822 40.665822 0 1 0 81.331644 0 40.665822 40.665822 0 1 0-81.331644 0Z" p-id="4477"></path><path d="M683.099282 232.314322m-28.985214 0a28.985213 28.985213 0 1 0 57.970427 0 28.985213 28.985213 0 1 0-57.970427 0Z" p-id="4478"></path><path d="M725.495564 369.020701m-22.495986 0a22.495986 22.495986 0 1 0 44.991972 0 22.495986 22.495986 0 1 0-44.991972 0Z" p-id="4479"></path><path d="M548.988593 43.261512a361.666244 361.666244 0 0 0-361.233629 357.772709v59.700887l-73.111956 139.734685a40.233207 40.233207 0 0 0 38.935361 64.027038h34.176595v132.812844a75.707647 75.707647 0 0 0 75.275032 75.275031l103.82763-15.574144v104.260245a20.765526 20.765526 0 0 0 25.524292 19.900296l373.346853-66.190114a32.446134 32.446134 0 0 0 25.524292-30.283059v-219.335868A359.070553 359.070553 0 0 0 548.988593 43.261512z m179.967892 146.223913c154.010984 133.245458 121.56485 342.631179-272.547529 262.59738 0 0-125.458386-6.056612-143.628221-81.331643C254.377693 129.784537 619.072243 93.012252 728.956485 187.754964z m3.460921 399.30376" p-id="4480"></path></svg>