<?xml version="1.0" standalone="no"?><!DOCTYPE svg PUBLIC "-//W3C//DTD SVG 1.1//EN" "http://www.w3.org/Graphics/SVG/1.1/DTD/svg11.dtd"><svg t="1707197395392" class="icon" viewBox="0 0 1024 1024" version="1.1" xmlns="http://www.w3.org/2000/svg" p-id="2594" xmlns:xlink="http://www.w3.org/1999/xlink" width="200" height="200"><path d="M353.67 769.987c-7.62 0-13.787 6.083-13.787 13.577v27.159c0 7.497 6.167 13.577 13.787 13.577 7.62 0 13.787-6.08 13.787-13.577v-27.159c0-7.494-6.167-13.577-13.787-13.577zM353.67 471.27c-7.62 0-13.787 6.083-13.787 13.582v230.825c0 7.497 6.167 13.574 13.787 13.574 7.62 0 13.787-6.077 13.787-13.574V484.852c0-7.5-6.167-13.582-13.787-13.582zM519.109 471.27c-7.62 0-13.787 6.083-13.787 13.582v325.871c0 7.497 6.167 13.577 13.787 13.577 7.62 0 13.787-6.08 13.787-13.577V484.852c0-7.5-6.167-13.582-13.787-13.582zM684.548 471.27c-7.62 0-13.787 6.083-13.787 13.582v325.871c0 7.497 6.167 13.577 13.787 13.577 7.62 0 13.787-6.08 13.787-13.577V484.852c0-7.5-6.167-13.582-13.787-13.582zM918.056 276.865a75.258 75.258 0 0 1-0.108 1.764c0.066 1.412 0.108 2.825 0.108 4.24v-6.004z" p-id="2595"></path><path d="M806.101 175.941l-67.431-0.031c-5.88-75.746-38.858-111.986-141.257-111.986H431.974c-94.972 0-127.166 28.912-132.583 111.787l-79.708-0.036c-62.821 0-113.739 42.722-113.739 95.407v5.783c0 47.775 41.864 87.351 96.505 94.318v458.211c0 112.527 34.09 130.682 133.449 130.682h357.587c107.116 0 142.285-26.868 142.285-130.682V371.953c60.202-1.169 80.179-65.405 82.179-93.324-2.478-52.614-50.669-102.688-111.848-102.688z m-374.127-57.705h165.439c62.157 0 81.858 5.994 86.148 57.649l-329.492-0.149c1.98-49.8 13.479-57.5 77.905-57.5z m261.511 787.536H335.898c-80.133 0-78.302-5.002-78.302-76.378v-457.14l523.026-0.248v457.388c0 74.236-9.681 76.378-87.137 76.378z m112.616-582.797l-586.418 3.036c-32.368 0-58.592-22.009-58.592-49.146v-5.783c0-27.145 26.224-49.151 58.592-49.151l586.418 3.019c32.368 0 56.01 21.121 56.01 49.014 0 27.884-23.642 49.011-56.01 49.011z" p-id="2596"></path></svg>