<svg xmlns="http://www.w3.org/2000/svg" viewBox="0 0 24 24" stroke="currentColor" width="24" height="24" fill="currentColor"><path d="M1.16888 5.70294L1.63871 4.36146C1.7569 4.05163 2.22966 3.858 2.58423 4.1291L11.6631 11.164C11.8614 11.3176 12.1386 11.3176 12.3369 11.164L21.4158 4.1291C21.7703 3.858 22.2431 4.05163 22.3613 4.36146L22.8311 5.70294C22.9634 6.08077 23.0572 6.48435 22.9598 6.8726C22.8619 7.26286 22.6619 7.62817 22.3523 8.05008L12.5354 21.0977C12.4464 21.2161 12.3069 21.2857 12.1587 21.2857H11.8413C11.6932 21.2857 11.5537 21.2161 11.4646 21.0977L1.64766 8.05008C1.33811 7.62817 1.13813 7.26286 1.04024 6.8726C0.942845 6.48435 1.03655 6.08077 1.16888 5.70294Z" fill="none" stroke-width="0.956522"></path></svg>