<?xml version="1.0" standalone="no"?><!DOCTYPE svg PUBLIC "-//W3C//DTD SVG 1.1//EN" "http://www.w3.org/Graphics/SVG/1.1/DTD/svg11.dtd"><svg t="1713951987116" class="icon" viewBox="0 0 1024 1024" version="1.1" xmlns="http://www.w3.org/2000/svg" p-id="3789" xmlns:xlink="http://www.w3.org/1999/xlink" width="200" height="200"><path d="M671 873.3v28.9c39.9 0 72.3-32.4 72.3-72.3h-28.9c0 23.9-19.5 43.4-43.4 43.4zM121.7 627.5h28.9v28.9h-28.9v-28.9z m0 57.9h28.9v28.9h-28.9v-28.9z m159-592.7c31.9 0 57.8 25.9 57.8 57.8S312.6 208.3 280.7 208.3s-57.8-25.9-57.8-57.8 25.9-57.8 57.8-57.8z m0 144.5c47.8 0 86.7-38.9 86.7-86.7s-38.9-86.7-86.7-86.7S194 102.7 194 150.5s38.9 86.7 86.7 86.7z m462.6-86.7c15.9 0 28.9 13 28.9 28.9s-13 28.9-28.9 28.9-28.9-13-28.9-28.9c0-15.9 13-28.9 28.9-28.9z m0 86.7c31.9 0 57.8-25.9 57.8-57.8s-25.9-57.8-57.8-57.8-57.8 25.9-57.8 57.8 25.9 57.8 57.8 57.8z m159 245.8H518.4c5-8.5 8-18.3 8-28.9 0-31.9-25.9-57.8-57.8-57.8h-18.9c14-9.3 30.6-14.5 47.8-14.5 47.8 0 86.7 38.9 86.7 86.7h28.9c0-15.3-3.1-30-8.5-43.4h88.6c15.9 17.7 38.9 28.9 64.5 28.9s48.6-11.2 64.5-28.9h80.1c15.9 0 28.9 13 28.9 28.9 0 16-12.9 29-28.9 29zM858.9 569.7H706.4c5-8.5 8-18.3 8-28.9 0-10.6-3.1-20.4-8-28.9H859c15.9 0 28.9 13 28.9 28.9s-13 28.9-29 28.9z m-84.8 137.4c-10.3 14.3-16.4 31.7-16.4 50.5h28.9c0-31.9 25.9-57.8 57.8-57.8s57.8 25.9 57.8 57.8-25.9 57.8-57.8 57.8c-8.9 0-17.7-2.2-26.3-6.7l-20.7 9.7c-15 66.3-72.9 112.7-140.9 112.7-52.5 0-99.6-27.8-125.1-72.3h23.9c31.9 0 57.8-25.9 57.8-57.8 0-10.6-3.1-20.4-8-28.9H671c31.9 0 57.8-25.9 57.8-57.8 0-10.8-3.2-20.9-8.4-29.5 9.2-1 17.9-3.9 25.3-8.8 11.3 8.7 20 18.3 28.4 31.1zM380.5 829.9c-6.7-32.9-35.9-57.8-70.8-57.8-34.7 0-63.7 24.6-70.6 57.2-81.7-6.6-146.2-75-146.2-158.4v-86.7c0-87.7 71.3-159 159-159h216.8c15.9 0 28.9 13 28.9 28.9s-13 28.9-28.9 28.9h-159v28.9h346.9c15.9 0 28.9 13 28.9 28.9 0 15.9-13 28.9-28.9 28.9H396.4v28.9h318c15.9 0 28.9 13 28.9 28.9s-13 28.9-28.9 28.9h-318v28.9H671c15.9 0 28.9 13 28.9 28.9 0 15.9-13 28.9-28.9 28.9H396.4v28.9h159c15.9 0 28.9 13 28.9 28.9s-13 28.9-28.9 28.9l-174.9 0.1zM309.6 887.7c-23.9 0-43.4-19.5-43.4-43.4s19.5-43.4 43.4-43.4 43.4 19.5 43.4 43.4c0 24-19.5 43.4-43.4 43.4zM280.7 309.5c55.8 0 107.3 29.6 135.9 76.7-3.2 3.2-6.3 6.5-9.1 10.1H251.8c-49.7 0-94.9 19.6-128.5 51.2 10.3-77.8 76.9-138 157.4-138z m159-57.8h216.8c15.9 0 28.9 13 28.9 28.9s-13 28.9-28.9 28.9h-159v28.9H676c-3.2 9.1-5.1 18.8-5.1 28.9s1.9 19.8 5.1 28.9h-88.4c-21.2-26.4-53.7-43.4-90.1-43.4-20.6 0-40.4 5.7-57.8 15.7-23.9-37.9-60.5-65.8-102.6-79.1C365.7 265.3 402 251.7 439.7 251.7z m318.1 57.8c31.9 0 57.8 25.9 57.8 57.8s-25.9 57.8-57.8 57.8-57.8-25.9-57.8-57.8 25.9-57.8 57.8-57.8z m81.6 28.9h5.1c15.9 0 28.9 13 28.9 28.9s-13 28.9-28.9 28.9h-5.1c3.2-9.1 5.1-18.8 5.1-28.9s-1.9-19.8-5.1-28.9z m120.7 115.7c0-31.9-25.9-57.8-57.8-57.8h-8c5-8.5 8-18.3 8-28.9 0-31.9-25.9-57.8-57.8-57.8h-22.3C806.3 291.9 783.3 280.7 757.7 280.7c-16.4 0-31.7 4.7-44.9 12.6 0.9-4.1 1.5-8.3 1.5-12.6 0-31.9-25.9-57.8-57.8-57.8H439.7c-51.8 0-101.3 21.6-136.7 59.3-7.4-0.9-14.8-1.4-22.3-1.4-103.6 0-187.9 84.3-187.9 187.9 0 5 0.2 10 0.6 15-18.6 29.1-29.5 63.6-29.5 100.7v86.7c0 99.2 77.3 180.5 174.9 187.3 6.5 33.3 35.8 58.5 70.9 58.5 34.9 0 64.1-24.9 70.8-57.8h118.7c28.2 61.8 89 101.2 157.5 101.2 75.9 0 141.4-48.2 164.6-119 7.6 2.2 15.4 3.3 23.3 3.3 47.8 0 86.7-38.9 86.7-86.7s-38.9-86.7-86.7-86.7c-18.4 0-35.5 5.8-49.6 15.7-8.8-12.5-18.2-22.9-29.7-32.1 4.3-8.1 7-17.1 7-26.9 0-10.6-3.1-20.4-8-28.9H859c31.9 0 57.8-25.9 57.8-57.8 0-10.8-3.2-20.9-8.4-29.5 29-3.5 51.7-27.8 51.7-57.6z" fill="#3D8099" p-id="3790"></path></svg>