<?xml version="1.0" standalone="no"?><!DOCTYPE svg PUBLIC "-//W3C//DTD SVG 1.1//EN" "http://www.w3.org/Graphics/SVG/1.1/DTD/svg11.dtd"><svg t="1714045608713" class="icon" viewBox="0 0 1024 1024" version="1.1" xmlns="http://www.w3.org/2000/svg" p-id="3019" xmlns:xlink="http://www.w3.org/1999/xlink" width="200" height="200"><path d="M820.1 858.1H204.4c-60.6 0-109.9-49.3-109.9-109.9V278.3c0-60.6 49.3-109.9 109.9-109.9h615.7c60.6 0 109.9 49.3 109.9 109.9v469.9c0.1 60.6-49.2 109.9-109.9 109.9zM204.4 218.3c-33 0-59.9 26.9-59.9 59.9v469.9c0 33 26.9 59.9 59.9 59.9h615.7c33 0 59.9-26.9 59.9-59.9V278.3c0-33-26.9-59.9-59.9-59.9H204.4z" fill="#515151" p-id="3020"></path><path d="M672.2 750.2c-6.4 0-12.8-2.4-17.7-7.3l-261-261c-9-9-21.2-14-34.1-14-12.9 0-25 5-34.1 14L145.7 661.5c-9.8 9.8-25.6 9.8-35.4 0-9.8-9.8-9.8-25.6 0-35.4L290 446.5c18.5-18.5 43.2-28.7 69.4-28.7s51 10.2 69.4 28.7l261 261c9.8 9.8 9.8 25.6 0 35.4-4.8 4.9-11.2 7.3-17.6 7.3z" fill="#515151" p-id="3021"></path><path d="M605.4 683.4c-6.4 0-12.8-2.4-17.7-7.3-9.8-9.8-9.8-25.6 0-35.4l98.2-98.2c38.3-38.3 100.6-38.3 138.9 0l97.9 97.9c9.8 9.8 9.8 25.6 0 35.4-9.8 9.8-25.6 9.8-35.4 0l-97.9-97.9c-18.8-18.8-49.4-18.8-68.2 0L623 676.1c-4.8 4.9-11.2 7.3-17.6 7.3zM602.4 475.2c-47.6 0-86.4-38.8-86.4-86.4 0-47.6 38.8-86.4 86.4-86.4 47.6 0 86.4 38.8 86.4 86.4 0 47.6-38.7 86.4-86.4 86.4z m0-122.8c-20.1 0-36.4 16.3-36.4 36.4s16.3 36.4 36.4 36.4 36.4-16.3 36.4-36.4-16.3-36.4-36.4-36.4z" fill="#515151" p-id="3022"></path></svg>