<?xml version="1.0" standalone="no"?><!DOCTYPE svg PUBLIC "-//W3C//DTD SVG 1.1//EN" "http://www.w3.org/Graphics/SVG/1.1/DTD/svg11.dtd"><svg t="1705940328844" class="icon" viewBox="0 0 1024 1024" version="1.1" xmlns="http://www.w3.org/2000/svg" p-id="5977" xmlns:xlink="http://www.w3.org/1999/xlink" width="200" height="200"><path d="M319.9337 64C249.3337 64 191.9337 121.4 191.9337 192v704c0 35.4 28.6 64 64 64s64-28.6 64-64V640h190.6l205 292.8c20.2 29 60.2 36 89.2 15.8s36-60.2 15.8-89.2l-168.4-240.4C757.5337 576.2 831.9337 472.8 831.9337 352c0-159-129-288-288-288H319.9337z m224 448H319.9337V192h224c88.4 0 160 71.6 160 160s-71.6 160-160 160z" p-id="5978"></path></svg>