<?xml version="1.0" standalone="no"?><!DOCTYPE svg PUBLIC "-//W3C//DTD SVG 1.1//EN" "http://www.w3.org/Graphics/SVG/1.1/DTD/svg11.dtd"><svg t="1705940238186" class="icon" viewBox="0 0 1025 1024" version="1.1" xmlns="http://www.w3.org/2000/svg" p-id="2778" xmlns:xlink="http://www.w3.org/1999/xlink" width="200.1953125" height="200"><path d="M20 384c-32 0-16 28.8-16 28.8l86.4 179.2S109.6 640 164 640h57.6c54.4 0 73.6-48 73.6-48l86.4-179.2s16-28.8-16-28.8H314.4c-19.2 0-22.4 12.8-32 28.8L224.8 531.2s-6.4 22.4-32 22.4-32-22.4-32-22.4l-60.8-118.4c-9.6-16-12.8-28.8-28.8-28.8H20z m467.2 0c-54.4 0-73.6 48-73.6 48l-86.4 179.2s-16 28.8 16 28.8h51.2c16 0 19.2-12.8 28.8-28.8l57.6-118.4s6.4-22.4 32-22.4c22.4 0 32 22.4 32 22.4l60.8 118.4c6.4 16 12.8 28.8 28.8 28.8h51.2c32 0 16-28.8 16-28.8l-86.4-179.2s-19.2-48-73.6-48h-54.4z m176 0c-32 0-16 28.8-16 28.8l86.4 179.2s19.2 48 73.6 48h54.4c54.4 0 73.6-48 73.6-48l86.4-179.2s16-28.8-19.2-28.8h-51.2c-16 0-19.2 12.8-28.8 28.8L864.8 531.2s-6.4 22.4-32 22.4c-22.4 0-32-22.4-32-22.4l-57.6-118.4c-9.6-16-12.8-28.8-28.8-28.8h-51.2z" p-id="2779"></path></svg>