<?xml version="1.0" standalone="no"?><!DOCTYPE svg PUBLIC "-//W3C//DTD SVG 1.1//EN" "http://www.w3.org/Graphics/SVG/1.1/DTD/svg11.dtd"><svg t="1713510256844" class="icon" viewBox="0 0 1024 1024" version="1.1" xmlns="http://www.w3.org/2000/svg" p-id="2532" xmlns:xlink="http://www.w3.org/1999/xlink" width="200" height="200"><path d="M186.1632 876.7488a95.08864 95.08864 0 0 0 82.7392 47.5136H483.328V685.2608H242.0736l-55.5008 96.256a94.80192 94.80192 0 0 0-0.4096 95.232" fill="#662D91" p-id="2533"></path><path d="M172.6464 272.9984l207.6672 119.808s155.8528-270.336 184.32-319.2832C586.5472 35.84 625.0496 13.1072 668.4672 13.1072H370.4832c-31.1296 0-57.1392 17.408-72.4992 42.1888-26.2144 43.008-125.3376 217.7024-125.3376 217.7024" fill="#ED1C24" p-id="2534"></path><path d="M681.984 682.5984l0.2048-89.4976s-120.6272 148.48-120.6272 208.896c0 60.2112 120.6272 208.896 120.6272 208.896L681.984 921.6h120.2176c29.0816 0.2048 57.344-14.7456 72.704-41.3696L1024 621.9776a121.6512 121.6512 0 0 1-105.8816 60.6208H681.984z" fill="#22B573" p-id="2535"></path><path d="M750.1824 85.6064a94.96576 94.96576 0 0 0-82.5344-47.7184c-33.9968 0-65.536 18.6368-82.1248 48.3328 0 0-27.8528 47.7184-55.7056 96.256l56.1152 97.28-78.2336 43.8272s189.0304 29.9008 241.0496 0c52.224-30.3104 120.6272-208.6912 120.6272-208.6912L792.1664 159.744c0.2048-0.4096-29.9008-53.248-41.984-74.1376" fill="#ED1C24" p-id="2536"></path><path d="M1004.3392 609.8944c16.9984-29.4912 16.7936-65.9456-0.4096-95.232l-107.3152-185.5488-206.848 119.3984 120.6272 208.896h111.0016a95.4368 95.4368 0 0 0 82.944-47.5136" fill="#22B573" p-id="2537"></path><path d="M284.2624 561.3568l77.4144 44.8512s-68.4032-178.5856-120.6272-208.896C189.0304 367.2064 0 397.312 0 397.312l77.6192 44.4416-60.2112 104.2432a82.80064 82.80064 0 0 0-0.4096 83.7632l149.0944 258.048a121.91744 121.91744 0 0 1 0.4096-122.2656l117.76-204.1856z" fill="#662D91" p-id="2538"></path></svg>